Coordinates
version=1
nRows=12
nColumns=24
inDegrees=yes

Units are S.I. units (second, meters, Newtons, ...)
Angles are in degrees.

endheader
time	pelvis_tilt	pelvis_list	pelvis_rotation	pelvis_tx	pelvis_ty	pelvis_tz	hip_flexion_r	hip_adduction_r	hip_rotation_r	knee_angle_r	ankle_angle_r	subtalar_angle_r	mtp_angle_r	hip_flexion_l	hip_adduction_l	hip_rotation_l	knee_angle_l	ankle_angle_l	subtalar_angle_l	mtp_angle_l	lumbar_extension	lumbar_bending	lumbar_rotation
      0.56600000	     -3.35994944	      4.57069400	     12.91799547	     -0.82067772	      0.87157868	      0.27349385	     34.39591111	     -6.94008603	    -10.72549253	     -8.72580664	      6.91529921	     -0.85540519	      4.70049014	    -19.87538781	      4.23316759	      7.11722689	     -9.17053909	     11.56446792	      2.32281372	     17.47105426	     -4.32064342	     -7.71636809	    -12.04218906
      0.57016667	     -3.31559602	      4.42568051	     12.95837117	     -0.81425168	      0.87098974	      0.27371961	     34.30955947	     -6.69992746	    -10.61696277	     -9.23452545	      6.60757576	     -1.36471798	      4.62989205	    -19.92135711	      3.95877332	      6.92935892	     -9.92829292	     11.37956614	      2.55057471	     17.56588441	     -4.25638147	     -7.47290445	    -12.12622799
      0.57433333	     -3.27335457	      4.28359076	     12.99008444	     -0.80778902	      0.87042931	      0.27396552	     34.22201778	     -6.45887334	    -10.52296460	     -9.75358854	      6.29392886	     -1.77845487	      4.58725041	    -19.95281100	      3.69003828	      6.73350292	    -10.70320519	     11.13207002	      2.74444011	     17.72651735	     -4.18383439	     -7.22232282	    -12.03369434
      0.57850000	     -3.20885589	      4.13027608	     12.99770232	     -0.80125410	      0.86991467	      0.27425406	     34.10404033	     -6.18562937	    -10.41987174	    -10.26223656	      5.90088749	     -2.26604265	      4.56890089	    -20.00768562	      3.40803111	      6.51016608	    -11.48202324	     10.87414249	      2.94737151	     17.99150863	     -4.12858796	     -6.97392918	    -11.95008791
      0.58266667	     -3.16619229	      3.96917040	     13.00368101	     -0.79469295	      0.86941062	      0.27455714	     33.99774889	     -5.90256964	    -10.29801831	    -10.75159420	      5.44141123	     -2.76105989	      4.58282932	    -20.01312471	      3.12608475	      6.30077716	    -12.30234864	     10.55821274	      3.10861207	     18.33396486	     -4.04369723	     -6.70623271	    -11.84999575
      0.58683333	     -3.10883805	      3.79242026	     12.99801175	     -0.78809707	      0.86894957	      0.27489248	     33.86339348	     -5.58944397	    -10.15657933	    -11.21473888	      4.92061681	     -3.30031258	      4.63429990	    -20.01667788	      2.82461456	      6.06093126	    -13.15048265	     10.21148339	      3.27835645	     18.79587932	     -3.97611615	     -6.42191678	    -11.73317109
      0.59100000	     -3.02577052	      3.55838902	     13.02360228	     -0.78144354	      0.86856607	      0.27520231	     33.68737079	     -5.24083108	    -10.15803702	    -11.65250526	      4.36056779	     -3.64584642	      5.20340652	    -19.97872669	      2.42904377	      5.70667058	    -14.10511670	      9.88225260	      3.67019911	     21.95929634	     -3.91451133	     -6.05205168	    -11.62053000
      0.59516667	     -3.04745325	      3.41691475	     12.95266840	     -0.77476628	      0.86805154	      0.27560312	     33.66586943	     -4.94177228	     -9.89511230	    -12.17071168	      3.77619938	     -4.18906543	      5.21995489	    -19.93443263	      2.22436697	      5.60459395	    -14.87909014	      9.24683565	      3.47671274	     22.09017466	     -3.74368608	     -5.81166638	    -11.52128541
      0.59933333	     -2.93678965	      3.18035531	     12.90450859	     -0.76803417	      0.86774090	      0.27604766	     33.46711579	     -4.52914436	     -9.73424968	    -12.60019974	      3.08144518	     -4.83723982	      5.46908782	    -19.92415748	      1.84179811	      5.21713109	    -15.83065995	      8.83916687	      3.79415999	     23.08136352	     -3.71457066	     -5.44469332	    -11.33092811
      0.60350000	     -2.97282170	      3.01416835	     12.86152854	     -0.76137691	      0.86727136	      0.27644556	     33.47314419	     -4.22624132	     -9.51898436	    -13.14603968	      2.39114983	     -5.45498646	      5.52955055	    -19.77078271	      1.60432119	      5.11204415	    -16.77427110	      8.28965891	      3.66031505	     23.34534874	     -3.52736115	     -5.19414948	    -11.18455769
      0.60766667	     -2.95797462	      2.79884377	     12.79266973	     -0.75463713	      0.86689341	      0.27690202	     33.41900634	     -3.84970960	     -9.30677612	    -13.66617959	      1.67365808	     -6.05789905	      5.61291057	    -19.63749131	      1.29229943	      4.85442411	    -17.75782875	      7.73007591	      3.75318365	     23.67241489	     -3.38092196	     -4.85995461	    -10.99376146
      0.61183333	     -2.94842911	      2.57867617	     12.71817267	     -0.74790690	      0.86652919	      0.27737986	     33.38890383	     -3.46956512	     -9.08488919	    -14.22546737	      0.97821361	     -6.64646260	      5.72241156	    -19.46127441	      0.97616424	      4.58907734	    -18.80844495	      7.14533025	      3.85129761	     24.08248360	     -3.23644072	     -4.52713383	    -10.80469631
